<svg xmlns="http://www.w3.org/2000/svg" xmlns:xlink="http://www.w3.org/1999/xlink" width="96" height="120" viewBox="0 0 96 120"><defs><clipPath id="a"><rect width="96" height="120" fill="#003262"/></clipPath></defs><g clip-path="url(#a)"><path d="M48.789,32.862c-1.478-.047-2.96-.042-4.439-.006A2.322,2.322,0,0,0,41.9,35.139a2.36,2.36,0,0,0,2.389,2.372c.689.05,1.386.009,2.208.009v1.37c0,5.851-.008,11.7.006,17.554a2.346,2.346,0,1,0,4.666.062q.02-10.59,0-21.181a2.249,2.249,0,0,0-2.373-2.463" fill="#003262"/><path d="M95.52,100.517c-.18-.3-.367-.6-.556-.894Q87.756,88.331,80.549,77.038c-.247-.387-.477-.784-.727-1.2a7.687,7.687,0,0,0,5.848-8.627c-.313-2.141.642-3.616,2.45-4.755,3.785-2.383,4.862-6.134,2.9-10.109a4.837,4.837,0,0,1,.482-5.545c2.658-3.558,2.314-7.515-.928-10.484a4.867,4.867,0,0,1-1.521-5.457c1.194-4.15-.61-7.731-4.676-9.316a4.876,4.876,0,0,1-3.394-4.54A7.274,7.274,0,0,0,73.394,10a5,5,0,0,1-4.978-3.1A7.235,7.235,0,0,0,58.87,3.212a4.981,4.981,0,0,1-5.759-1.084,7.222,7.222,0,0,0-10.234,0,4.969,4.969,0,0,1-5.756,1.088A7.236,7.236,0,0,0,27.574,6.9,5,5,0,0,1,22.6,10a7.271,7.271,0,0,0-7.589,7.009,4.884,4.884,0,0,1-3.395,4.541C7.494,23.162,5.77,26.671,6.97,30.978a4.586,4.586,0,0,1-1.485,5.248c-.15.125-.287.264-.428.4a7.365,7.365,0,0,0-.839,9.8,5.191,5.191,0,0,1,.552,6.354,6.759,6.759,0,0,0-.211,5.889,7.265,7.265,0,0,0,3.3,3.809,4.432,4.432,0,0,1,2.47,4.742,8.856,8.856,0,0,0-.059.935A7.272,7.272,0,0,0,14.146,75a19.918,19.918,0,0,0,2.023.891c-1.468,2.3-2.891,4.537-4.317,6.771Q6.345,91.29.829,99.915c-.741,1.153-1.2,2.317-.437,3.6s1.986,1.46,3.365,1.316c2.635-.274,5.277-.482,7.917-.709,2.246-.193,4.493-.374,6.757-.562.188.475.355.866.5,1.265,1.478,4.107,2.982,8.2,4.411,12.329a4.635,4.635,0,0,0,2.2,2.847h1.638a17.711,17.711,0,0,0,2.169-2.336q8.982-13.952,17.881-27.955c.223-.35.466-.687.779-1.145.344.518.624.924.89,1.339q8.865,13.886,17.75,27.761A17.711,17.711,0,0,0,68.814,120h1.638a4.828,4.828,0,0,0,2.246-2.956c1.563-4.484,3.195-8.945,4.821-13.474.673.046,1.291.079,1.907.132,4.464.391,8.927.795,13.392,1.174a2.742,2.742,0,0,0,2.782-1.362,2.782,2.782,0,0,0-.08-3m-84.715.195c-2.133.145-4.262.352-6.665.558L19.594,77.05l2.943,6.434c-.39.625-.961,1.548-1.539,2.466-2.885,4.582-5.782,9.155-8.643,13.751a1.822,1.822,0,0,1-1.55,1.011m11.659,2.645c-.751-1.021-1.288-2.367-2.27-2.917-1.009-.564-2.451-.351-3.791-.487.139-.259.28-.562.456-.843,2.779-4.42,5.574-8.83,8.333-13.262a1.293,1.293,0,0,1,1.487-.669c1.3.112,2.62-.164,3.931-.144a27.758,27.758,0,0,1,3.134.408c-3.923,6.23-7.631,12.12-11.28,17.914m4.062,12.256c-.936-2.628-1.815-5.054-2.643-7.5-.077-.226.116-.6.271-.842q5.781-9.206,11.584-18.4a4.059,4.059,0,0,1,.315-.366,7.9,7.9,0,0,0,6.664,1.725L26.526,115.613M43.763,85.878c-2.658,1.649-4.491,1.321-6.341-1.163a7.525,7.525,0,0,0-8.01-3.086c-2.856.55-4.538-.389-5.327-3.137a7.842,7.842,0,0,0-6.878-6.1,3.909,3.909,0,0,1-3.428-4.3c.017-.35.048-.7.073-1.051A7.5,7.5,0,0,0,10.016,59.7C7.4,58.113,6.895,56.246,8.282,53.472a7.464,7.464,0,0,0-.791-8.444c-1.866-2.448-1.679-4.386.6-6.445a7.429,7.429,0,0,0,2.326-8.149c-.883-3.033-.03-4.675,2.958-5.844a7.408,7.408,0,0,0,5-6.471c.413-3.61,1.563-4.608,5.215-4.67a7.482,7.482,0,0,0,6.752-4.258A8.554,8.554,0,0,1,32.544,6.6,3.241,3.241,0,0,1,35.9,6.456a7.751,7.751,0,0,0,9.222-1.663,3.843,3.843,0,0,1,5.739-.011,7.845,7.845,0,0,0,9.225,1.7,3.811,3.811,0,0,1,5.258,2.065,7.8,7.8,0,0,0,7.866,4.928,3.892,3.892,0,0,1,4.308,3.936,7.9,7.9,0,0,0,5.627,7.406,3.839,3.839,0,0,1,2.539,5.148,7.835,7.835,0,0,0,2.543,8.94,3.885,3.885,0,0,1,.553,5.729,7.9,7.9,0,0,0-.835,9.361,3.841,3.841,0,0,1-1.566,5.443,7.911,7.911,0,0,0-4.208,8.3c.266,2.7-1.031,4.254-3.716,4.721a7.535,7.535,0,0,0-6.381,5.585c-1.008,3.314-2.35,4.1-5.826,3.538a7.455,7.455,0,0,0-7.668,3.129c-1.85,2.484-3.692,2.824-6.338,1.179a7.505,7.505,0,0,0-8.476-.006m28.118,23.047c-.82,2.14-1.566,4.307-2.421,6.683L53.242,90.2a7.782,7.782,0,0,0,6.7-1.681c.241.33.454.59.632.873,3.7,5.866,7.38,11.743,11.1,17.593a1.931,1.931,0,0,1,.2,1.942m7.646-8.7c-2.9-.625-5.172-.122-5.693,3.621L62.445,85.762a4.069,4.069,0,0,1,3-.757c1.418.112,2.848.065,4.27.136a1.168,1.168,0,0,1,.833.4q4.513,7.1,8.97,14.238c.033.053,0,.146,0,.447m5.09.371a1.31,1.31,0,0,1-.768-.605c-3.522-5.559-7.024-11.131-10.4-16.487,1.018-2.24,1.921-4.23,2.935-6.461l15.472,24.241c-2.57-.236-4.909-.432-7.242-.688" fill="#003262"/><path d="M57.618,77.29a30.973,30.973,0,0,0,8.6-3.991l.144-.1q.649-.429,1.283-.885c.054-.04.109-.078.162-.118.189-.137.379-.269.565-.41a2.229,2.229,0,0,0,.259-.231,33.127,33.127,0,0,0,5.787-5.894,2.574,2.574,0,0,0,.31-.342c.513-.686,1.017-1.382,1.477-2.1a33.321,33.321,0,0,0,1.782-3.192q.153-.3.3-.609l.018-.041a31.63,31.63,0,0,0,2.25-6.563c.011-.045.023-.09.033-.136.074-.33.139-.663.2-.995.026-.136.056-.271.081-.407.1-.563.2-1.129.28-1.7a2.339,2.339,0,0,0,.019-.341,33.711,33.711,0,0,0-.078-8.552c0-.061,0-.12-.012-.182-.121-.849-.256-1.7-.441-2.535a33.333,33.333,0,0,0-3.749-9.575l-.073-.122c-.2-.335-.4-.668-.606-.995-.147-.232-.3-.46-.454-.689-.09-.134-.177-.27-.269-.4a33.379,33.379,0,0,0-3.851-4.636,31.8,31.8,0,0,0-8.355-6.085,33.252,33.252,0,0,0-11.854-3.542l-.261-.029c-.28-.026-.56-.047-.841-.066a30.679,30.679,0,0,0-8.859.54c-.223.044-.446.089-.668.138-.195.045-.391.09-.586.14A27.011,27.011,0,0,0,37,13.627c-.08.031-.155.066-.236.1a35.869,35.869,0,0,0-3.88,1.726c-.159.081-.321.161-.479.244-.338.18-.674.372-1.01.564-.426.24-.848.483-1.258.736-.2.125-.4.26-.6.389-.388.251-.777.5-1.15.764-.149.1-.3.192-.447.3a2.407,2.407,0,0,0-.325.276,30.951,30.951,0,0,0-8.243,9.193,33.154,33.154,0,0,0-4.385,12.2c-.023.127-.054.249-.076.377a2.439,2.439,0,0,0-.034.435,33.922,33.922,0,0,0-.041,8.087,2.34,2.34,0,0,0,.007.59c.136.926.279,1.852.478,2.766A33.1,33.1,0,0,0,19.9,63.333c.047.075.1.148.146.222.154.234.308.468.467.7a33.443,33.443,0,0,0,3.96,4.775c.764.676,1.621,1.475,2.521,2.221a25.136,25.136,0,0,0,2.157,1.6c.344.228.692.437,1.039.652.162.1.324.206.488.306l.312.184a33.776,33.776,0,0,0,4.748,2.346c.207.083.414.158.621.237.243.091.485.182.729.267q.549.195,1.1.368l.031.009a31.682,31.682,0,0,0,5.473,1.205l.246.031c.355.043.71.085,1.067.116,1.042.1,2.094.15,3.156.148.478-.029.99-.054,1.518-.084.229-.013.459-.025.689-.043.379-.024.761-.052,1.144-.088a25.047,25.047,0,0,0,2.656-.395c.258-.053.507-.118.761-.175.892-.185,1.788-.392,2.69-.645m7.635-7.6a27.346,27.346,0,0,1-11.73,4.956,37.869,37.869,0,0,1-5.921.457,36.027,36.027,0,0,1-4.178-.356,29.323,29.323,0,0,1-10.112-3.323,31.384,31.384,0,0,1-9.385-8.561,32.309,32.309,0,0,1-2-3.015c-.039-.068-.078-.138-.117-.207q-.385-.669-.731-1.347l-.1-.2c-.152-.305-.289-.614-.429-.921a33.2,33.2,0,0,1-2.278-8.222c-.008-.047-.024-.087-.034-.132a31.479,31.479,0,0,1,.882-11.28c2.106-6.988,5.672-12.422,10.728-16.212.822-.5,1.569-1.13,2.407-1.6a39.056,39.056,0,0,1,5.766-2.66,37.3,37.3,0,0,1,5.45-1.417,27.642,27.642,0,0,1,11.409.387c.11.028.221.049.331.078.252.064.5.148.75.219a33.852,33.852,0,0,1,9.708,4.773,26.384,26.384,0,0,1,2.183,1.714,28.856,28.856,0,0,1,6.831,8.857,33.49,33.49,0,0,1,2.487,7,30.114,30.114,0,0,1,.463,10.653c-.061.32-.114.642-.168.963-.146.873-.334,1.73-.548,2.577-.152.562-.3,1.125-.491,1.678A33.484,33.484,0,0,1,73.21,61.32c-.179.266-.351.534-.541.8a35.079,35.079,0,0,1-7.127,7.369l-.289.208" fill="#003262"/></g></svg>