<svg xmlns="http://www.w3.org/2000/svg" xmlns:xlink="http://www.w3.org/1999/xlink" width="92" height="120" viewBox="0 0 92 120"><defs><clipPath id="a"><rect width="92" height="120" fill="#003262"/></clipPath></defs><g clip-path="url(#a)"><path d="M45.55,54.51h5.076c.389,0,.781-.021,1.169.006a2.389,2.389,0,0,1,2.424,2.35,2.311,2.311,0,0,1-2.439,2.307c-3.429.035-6.859.009-10.288.008a2.569,2.569,0,0,1-2.522-1.366,2.637,2.637,0,0,1,.431-2.948c2.317-3.187,4.684-6.339,6.948-9.564a18.562,18.562,0,0,0,2.057-3.777,2.779,2.779,0,0,0-1.7-3.607,3.058,3.058,0,0,0-3.865,1.508c-.166.349-.24.742-.387,1.1a2.325,2.325,0,0,1-2.858,1.416,2.376,2.376,0,0,1-1.577-2.777A7.757,7.757,0,0,1,47.293,33.2a7.488,7.488,0,0,1,5.642,9.482,24.147,24.147,0,0,1-2.8,5.357c-1.381,2.166-2.965,4.2-4.589,6.473" fill="#003262"/><path d="M45.99,11.787h0a34.252,34.252,0,0,0-34.208,34.19A34.246,34.246,0,0,0,45.989,80.148h0a34.181,34.181,0,1,0,0-68.361M67.463,67.3a30.135,30.135,0,0,1-21.447,8.934h-.032A30.325,30.325,0,0,1,15.694,46,30.347,30.347,0,0,1,45.963,15.7h.025a30.362,30.362,0,0,1,30.3,30.246A29.947,29.947,0,0,1,67.463,67.3" fill="#003262"/><path d="M81.842,88.317l-4.456-8.544.2-.32a1.044,1.044,0,0,1,.154-.216l.4-.4c.145-.145.289-.289.431-.437,11.019-11.477,15.29-25.039,12.7-40.309C88.8,23.549,80.75,12.527,67.351,5.328a35.133,35.133,0,0,0-3.992-1.8,41.907,41.907,0,0,0-5.812-2.041l-.089-.03c-.04-.014-.078-.016-.118-.028a44.676,44.676,0,0,0-21.824-.15,2.332,2.332,0,0,0-.883.144c-.391.139-.784.274-1.176.411a27.872,27.872,0,0,0-3,1.048,48.525,48.525,0,0,0-5.748,2.376A45.913,45.913,0,0,0,6.4,69.363a48.772,48.772,0,0,0,8.03,10.053l.209.2-.316.656c-.131.275-.257.538-.392.8L11.8,85.15q-4.667,8.923-9.345,17.841c-.618,1.175-.635,1.916-.062,2.643.61.775,1.411.955,2.677.6,2.523-.7,5.051-1.384,7.579-2.066l.38-.1c2.043-.551,4.087-1.1,6.156-1.652l2.77-.742.292.742c.108.27.2.514.294.761l1.167,3.262q2.035,5.688,4.049,11.382A3.673,3.673,0,0,0,29.33,120h1.134c.162-.176.331-.349.5-.521a6.158,6.158,0,0,0,1.11-1.353Q37.01,108.8,41.88,99.443l3.035-5.807c.133-.254.272-.505.444-.815l.634-1.15L46.61,92.8c.169.306.315.57.455.838l2.946,5.636q4.93,9.437,9.894,18.855a6.167,6.167,0,0,0,1.109,1.351c.169.173.34.345.5.522h1.042c.158-.2.327-.387.495-.579a5.757,5.757,0,0,0,1.089-1.526c.708-1.738,1.337-3.548,1.945-5.3q.382-1.108.775-2.213l3.114-8.692.841.2c.307.069.585.133.859.207l1.858.5q6.69,1.813,13.375,3.639a2.336,2.336,0,0,0,2.559-.452c.486-.5.872-1.222.052-2.791q-3.834-7.34-7.676-14.678M9.824,100.9c-.218.059-.439.109-.728.175l-1.377.32L17.733,82.253l.379.285c1.273.959,2.578,1.818,3.9,2.628l-7.7,14.518Zm12.267-3.329-2.49.676,5.9-11.131A45.106,45.106,0,0,0,32.121,89.8l-6.093,11.491-.723-2.027c-.649-1.812-1.37-2.191-3.214-1.692m8.2,15.558-.714-1.931c-.247-.665-.467-1.257-.679-1.851L27.848,106.4,36.093,90.85c1.566.347,3.157.643,4.8.844l.578.07ZM35.384,86.69A41.933,41.933,0,0,1,4.01,48.026C3.384,33.467,9,21.459,20.7,12.337A39.014,39.014,0,0,1,32.539,6.1a45.938,45.938,0,0,1,28.5.615C80.727,14.229,91.75,34.455,86.97,55.563A42.185,42.185,0,0,1,35.384,86.69m28,21.779-1.674,4.7-11.2-21.4.579-.07c1.591-.193,3.133-.479,4.653-.811l8.441,15.348-.8,2.235m6.408-10.93c-1.712-.454-2.487-.05-3.078,1.6-.245.684-.491,1.374-.737,2.06L59.731,89.842A45.1,45.1,0,0,0,66.308,87.2l5.815,10.964c-.777-.21-1.553-.421-2.33-.628m7.612,2.05-7.6-14.327c1.376-.837,2.734-1.729,4.06-2.725l.379-.285,10.039,19.189Z" fill="#003262"/></g></svg>