<svg xmlns="http://www.w3.org/2000/svg" xmlns:xlink="http://www.w3.org/1999/xlink" width="92" height="120" viewBox="0 0 92 120"><defs><clipPath id="a"><rect width="92" height="120" fill="#003262"/></clipPath></defs><g clip-path="url(#a)"><path d="M45.99,11.787h0a34.252,34.252,0,0,0-34.208,34.19A34.246,34.246,0,0,0,45.989,80.148h0a34.181,34.181,0,1,0,0-68.361M67.463,67.3a30.135,30.135,0,0,1-21.447,8.934h-.032A30.325,30.325,0,0,1,15.694,46,30.347,30.347,0,0,1,45.963,15.7h.025a30.362,30.362,0,0,1,30.3,30.246A29.947,29.947,0,0,1,67.463,67.3" fill="#003262"/><path d="M51.652,45.976c2.723,3.72,2.81,7.41.29,10.429a7.8,7.8,0,0,1-13.718-4.278c-.157-1.71.641-2.888,2.054-3.032,1.494-.153,2.44.728,2.649,2.469a3.063,3.063,0,0,0,6.12-.048,3.052,3.052,0,0,0-2.868-3.144c-1.489-.224-2.269-.829-2.5-1.941a2.341,2.341,0,0,1,1.713-2.713c.418-.1.859-.117,1.28-.212a3.044,3.044,0,0,0,2.382-2.979,3.1,3.1,0,0,0-2.3-2.936,3.07,3.07,0,0,0-3.537,1.683c-.13.284-.193.6-.3.893a2.361,2.361,0,0,1-2.893,1.591,2.3,2.3,0,0,1-1.624-2.763,7.312,7.312,0,0,1,5.241-5.838,7.407,7.407,0,0,1,8,2.058c2.852,2.968,2.845,6.88.02,10.761" fill="#003262"/><path d="M81.843,88.318l-4.457-8.545.2-.321a1.054,1.054,0,0,1,.153-.216l.4-.4c.145-.146.29-.29.431-.437,11.019-11.478,15.291-25.04,12.7-40.31C88.8,23.55,80.751,12.527,67.352,5.328a35.227,35.227,0,0,0-3.993-1.8,41.907,41.907,0,0,0-5.812-2.041l-.089-.03c-.039-.014-.078-.016-.118-.028a44.676,44.676,0,0,0-21.824-.15,2.332,2.332,0,0,0-.883.144c-.39.139-.784.274-1.176.411a27.693,27.693,0,0,0-3,1.048,48.638,48.638,0,0,0-5.749,2.376A45.915,45.915,0,0,0,6.4,69.363a48.8,48.8,0,0,0,8.03,10.054l.21.2-.317.655c-.13.274-.257.538-.392.8L11.8,85.15q-4.668,8.923-9.346,17.842c-.617,1.174-.635,1.915-.062,2.642.611.775,1.412.955,2.678.6,2.522-.7,5.051-1.383,7.578-2.066l.381-.1c2.043-.552,4.087-1.1,6.156-1.653l2.769-.741.293.741c.107.27.2.514.293.761l1.167,3.262q2.035,5.688,4.049,11.382A3.673,3.673,0,0,0,29.331,120h1.134c.161-.177.33-.35.5-.521a6.12,6.12,0,0,0,1.11-1.352Q37.01,108.8,41.88,99.443l3.035-5.807c.133-.254.273-.505.445-.815l.633-1.15L46.61,92.8c.17.306.316.57.456.838l2.946,5.636q4.93,9.437,9.893,18.855a6.121,6.121,0,0,0,1.11,1.351c.169.172.339.345.5.522h1.042c.158-.2.327-.387.5-.58a5.77,5.77,0,0,0,1.088-1.525c.709-1.739,1.337-3.548,1.945-5.3.256-.738.512-1.477.775-2.213l3.114-8.692.842.2c.307.069.584.133.858.207l1.858.5q6.69,1.813,13.375,3.639a2.335,2.335,0,0,0,2.559-.452c.486-.5.873-1.221.052-2.791q-3.834-7.34-7.675-14.677M30.293,113.13l-.713-1.93c-.247-.665-.467-1.257-.679-1.85l-3.6-10.085c-.648-1.812-1.37-2.191-3.213-1.692L9.825,100.9c-.219.059-.439.109-.728.175l-1.378.32L17.733,82.253l.38.286a46.22,46.22,0,0,0,22.78,9.155l.579.07Zm5.091-26.44A41.931,41.931,0,0,1,4.011,48.027C3.384,33.467,9,21.459,20.7,12.337A39.026,39.026,0,0,1,32.539,6.1a45.938,45.938,0,0,1,28.5.615C80.727,14.229,91.75,34.455,86.97,55.563A42.186,42.186,0,0,1,35.384,86.69M73.14,98.441q-1.672-.453-3.347-.9c-1.711-.454-2.487-.05-3.078,1.6-1.1,3.071-2.2,6.145-3.33,9.329l-1.674,4.7-11.2-21.4.58-.07a46.239,46.239,0,0,0,22.78-9.16l.379-.285,10.039,19.189Z" fill="#003262"/></g></svg>