<svg xmlns="http://www.w3.org/2000/svg" xmlns:xlink="http://www.w3.org/1999/xlink" width="1920" height="732" viewBox="0 0 1920 732"><defs><clipPath id="a"><rect width="960" height="652" transform="translate(0 80)" fill="#fff"/></clipPath></defs><rect width="960" height="732" fill="#003262"/><rect width="960" height="732" transform="translate(960)" fill="#42c0b6"/><g opacity="0.8" clip-path="url(#a)"><path d="M1039.814,1341.267l-.218-.138a98.088,98.088,0,0,1-40.026-47.721l-41.445-105.251a18.982,18.982,0,0,0-10.509-10.632l-18.978-7.722s-51.012-118.072-75.7-249.46L1008.26,1128.9a8.106,8.106,0,0,0,12.823.194l62.584-73.551a6.557,6.557,0,0,0,.156-7.976L895.793,796.131a5.589,5.589,0,0,0-8.608-.48l-15.893,15.29a20.632,20.632,0,0,1-31.077-2.439l-23.686-32.045L998.421,591.692a7.169,7.169,0,0,0,.787-9.1L940.952,498.4a6.536,6.536,0,0,0-9.867-1.036L764.484,654.7a4.037,4.037,0,0,0-.506,5.288l26.578,36.786c6.167,8.531,6.02,21.025-.914,28.275-4.9,5.123-6.5,6.8-6.5,6.8L536.394,398.993a7.58,7.58,0,0,0-10.622-1.565L445.09,457.542a8.132,8.132,0,0,0-1.605,11.432L625.434,708.686a6.8,6.8,0,0,1-.083,8.335c-6.485,8.177-22.007,27.7-41.059,51.4-14.885,18.515-31.932,39.574-48.511,59.76a10.83,10.83,0,0,0,3.533,16.567l4.325,2.152a23.884,23.884,0,0,1,12.634,26.634c-11.422,50.674-47.124,194.9-103.986,296.958A91.8,91.8,0,0,1,389,1216.021l-.838.155c-4.583.857-3.8,7.635.859,7.439q14.284-.6,28.886-.85c77.861-1.354,162.106,4.486,249.615,18.147q40.6,6.337,82.044,14.919,33.3,6.932,65.55,15.055,26.475,6.636,52.178,14.012c2.327.666,4.664,1.319,6.977,1.99,52.242,15.238,86.021,28.873,132.5,48.012q15.106,6.226,29.744,12.682A3.57,3.57,0,0,0,1039.814,1341.267Zm-161.726-77.036-.058-.021-22.911-95.831-27.87,13.017-8.419,36.9A26.2,26.2,0,0,1,787,1237.931q-20.283-4.974-41.17-9.327-19.313-4.023-38.39-7.349c2.176-122.386,7.352-256.1,7.352-256.1L595.923,1089.5l-64.831-80.128s151.851-150.707,176-174.576a1.654,1.654,0,0,0-1.11-2.823c-71.608-2.525-110.925,13.491-127.929,20.131a1.567,1.567,0,0,1-1.522-2.7c52.836-40.628,146.862-36.988,152.909-36.485l33.853-33.742a9.927,9.927,0,0,0,.961-12.938l-28.02-37.789a40.736,40.736,0,0,0-60.177-5.849l-8.944,8.15L466.278,466.419l60.3-44.838L775.742,756.155a7.153,7.153,0,0,0,10.849.739l13.327-13.583a45.162,45.162,0,0,0,4.276-58.187l-18-24.734L934.651,518.9l45.423,64.79L796.424,769.639a9.922,9.922,0,0,0-.857,12.954l27.661,36.586c16.379,20.015,46.951,21.492,64.541,2.371l2.523-2.745,172.625,229.946-47.926,54.822L785.312,794.495a9.136,9.136,0,0,0-13.843-.958L748.4,816.991c42.844,12.14,70.845,27.8,82.6,85.038s39.025,180.879,79.7,285.569l28.606,10.565,37.638,105.318S907.784,1274.186,878.088,1264.231ZM809.87,711.254l.113-.108.027.038-.128.081Z" transform="translate(-239.098 -315.924)" fill="#002b59"/></g></svg>