<svg xmlns="http://www.w3.org/2000/svg" width="24" height="18" viewBox="0 0 24 18"><path d="M1320.288,545.541h-21.438a1.328,1.328,0,0,0-1.281,1.368v15.264a1.408,1.408,0,0,0,.243.8,1.261,1.261,0,0,0,1.038.567h21.438a1.26,1.26,0,0,0,1.037-.566,1.426,1.426,0,0,0,.244-.8V546.909A1.328,1.328,0,0,0,1320.288,545.541Zm-13.8,9.636-7.947,6.558V548.62Zm.791.656,1.5,1.238a1.217,1.217,0,0,0,1.564,0l1.5-1.238,8.074,6.668h-20.715Zm2.1.413-10.834-8.939v-.4a.318.318,0,0,1,.307-.328h21.438a.318.318,0,0,1,.307.328v.4l-10.844,8.939A.293.293,0,0,1,1309.376,556.246Zm11.219-7.626v13.116l-7.948-6.558Z" transform="translate(-1297.568 -545.541)" fill="#f04b54"/></svg>