<svg xmlns="http://www.w3.org/2000/svg" width="24" height="23.999" viewBox="0 0 24 23.999"><g transform="translate(-1299.039 -639.572)"><path d="M1322.36,657.921l-4.809-3.208a1.532,1.532,0,0,0-2.042.328l-1.4,1.807a.474.474,0,0,1-.613.129l-.267-.148a22.238,22.238,0,0,1-7.446-7.445l-.147-.269a.475.475,0,0,1,.13-.615l1.8-1.4a1.532,1.532,0,0,0,.332-2.041l-3.208-4.809a1.515,1.515,0,0,0-2.044-.461l-2.01,1.2a2.945,2.945,0,0,0-1.348,1.755c-.728,2.673-.182,7.275,6.559,14.017,4.518,4.517,8.6,6.807,12.123,6.807h.048a7.144,7.144,0,0,0,1.845-.242,2.94,2.94,0,0,0,1.749-1.347l1.209-2.01A1.513,1.513,0,0,0,1322.36,657.921Zm-17.632-8.3.143.26a23.226,23.226,0,0,0,7.858,7.859l.26.144a1.512,1.512,0,0,0,1.936-.4l1.4-1.8a.491.491,0,0,1,.655-.106l4.8,3.2a.484.484,0,0,1,.151.656l-1.208,2.013a1.915,1.915,0,0,1-1.136.881c-2.405.663-6.618.106-13.014-6.294s-6.953-10.609-6.294-13.013a1.92,1.92,0,0,1,.884-1.139l2.011-1.207a.485.485,0,0,1,.655.148l3.2,4.807a.492.492,0,0,1-.106.655l-1.8,1.4A1.512,1.512,0,0,0,1304.728,649.621Z" transform="translate(0 0)" fill="#f04b54"/><path d="M1326.746,647.206h.129a6.629,6.629,0,0,1,6.481,6.61.516.516,0,1,0,1.033,0,7.664,7.664,0,0,0-7.643-7.642.516.516,0,1,0,0,1.033Z" transform="translate(-14.127 -3.429)" fill="#f04b54"/><path d="M1326.745,652.148a4.246,4.246,0,0,1,4.235,4.235.516.516,0,1,0,1.033,0,5.282,5.282,0,0,0-5.268-5.268.516.516,0,0,0,0,1.033Z" transform="translate(-14.126 -5.997)" fill="#f04b54"/><path d="M1326.745,657.091a1.864,1.864,0,0,1,1.859,1.859.516.516,0,0,0,1.033,0,2.9,2.9,0,0,0-2.892-2.891.516.516,0,0,0,0,1.032Z" transform="translate(-14.126 -8.566)" fill="#f04b54"/></g></svg>