<svg xmlns="http://www.w3.org/2000/svg" xmlns:xlink="http://www.w3.org/1999/xlink" width="90" height="90" viewBox="0 0 90 90"><defs><clipPath id="a"><rect width="64" height="48" fill="#fff"/></clipPath></defs><g transform="translate(-1165 -1390)"><circle cx="45" cy="45" r="45" transform="translate(1165 1390)" fill="#003262"/><g transform="translate(1178 1411)"><g clip-path="url(#a)"><path d="M3.614,23.778c-.143-.164-.249-.283-.352-.405a3.628,3.628,0,0,1,.727-5.535,18.229,18.229,0,0,1,7.674-3.115.769.769,0,0,0,.736-.714q.709-3.2,1.463-6.4a.706.706,0,0,0-.36-.943,3.524,3.524,0,0,1-1.611-4A3.6,3.6,0,0,1,15.3.018C16.474-.016,17.65.008,18.825.008q8.713,0,17.426,0a3.6,3.6,0,0,1,3.8,3.893,3.655,3.655,0,0,1-2.3,3.1L40.09,18.712h3.568c0-1.32.03-2.6-.007-3.888A4.772,4.772,0,0,1,45.239,11c.507-.471.976-.98,1.477-1.458a1.14,1.14,0,0,1,1.706-.106,1.107,1.107,0,0,1-.137,1.655c-.53.546-1.072,1.081-1.616,1.612a2.505,2.505,0,0,0-.8,1.914c.017,1.331,0,2.663,0,4.066h.8c3.643,0,7.284-.02,10.926.008a6.266,6.266,0,0,1,6.324,5.365A7.581,7.581,0,0,1,64,25.294q.008,3.874,0,7.747a6.27,6.27,0,0,1-4.885,6.442c-.467.129-.532.433-.646.773a11.2,11.2,0,0,1-21.211-.018.691.691,0,0,0-.772-.572c-2.72.022-5.44.017-8.16,0a.789.789,0,0,0-.813.458,14.292,14.292,0,0,1-13.78,7.863,14.576,14.576,0,0,1-10.4-23.836c.085-.107.165-.218.286-.378m23.31,8.342A11.135,11.135,0,0,0,24.1,25.387c-.162.154-.327.308-.49.465s-.32.333-.5.483a1.093,1.093,0,1,1-1.529-1.563,13.751,13.751,0,0,1,1.115-.938,12.309,12.309,0,0,0-6.937-2.9c0,.45.011.835,0,1.221-.026.783-.433,1.233-1.1,1.231s-1.073-.45-1.107-1.235c-.016-.383,0-.768,0-1.2A12.4,12.4,0,0,0,6.6,23.883a8.873,8.873,0,0,1,1.043.784A1.1,1.1,0,1,1,6.1,26.226a9.452,9.452,0,0,1-.8-1.04,12.372,12.372,0,0,0-2.93,6.941c.291,0,.495,0,.7,0a6.363,6.363,0,0,1,.69.017,1.085,1.085,0,0,1,1.057,1.14,1.062,1.062,0,0,1-1.131,1.051c-.424.017-.848,0-1.324,0A12.33,12.33,0,0,0,5.27,41.272a12.149,12.149,0,0,1,.817-.978,1.1,1.1,0,1,1,1.567,1.53,11.737,11.737,0,0,1-.992.839,12.3,12.3,0,0,0,6.882,2.886c0-.478-.02-.888,0-1.294A1.1,1.1,0,0,1,14.672,43.1a1.085,1.085,0,0,1,1.076,1.182c.015.4,0,.8,0,1.2,2.089.06,5.739-1.483,6.779-2.85-.278-.261-.578-.515-.843-.8a1.106,1.106,0,1,1,1.533-1.59c.324.281.629.582.965.9a12.178,12.178,0,0,0,2.783-6.81c-.455,0-.841.009-1.226,0-.742-.019-1.184-.409-1.205-1.047a1.1,1.1,0,0,1,1.183-1.158c.385-.021.773,0,1.2,0m5.489-13.444c-.283.309-.565.646-.879.95a1.126,1.126,0,0,1-1.655.125,1.107,1.107,0,0,1,.072-1.654q1.862-1.9,3.757-3.77a1.111,1.111,0,1,1,1.584,1.548,14.792,14.792,0,0,1-1.123.971l3.516,3.5a3.062,3.062,0,0,0,.239-1.122c-.74-3.842-1.529-7.674-2.288-11.511-.078-.391-.235-.52-.637-.519q-9.123.019-18.245,0c-.38,0-.581.081-.656.5-.121.678-.32,1.342-.479,2.013-.368,1.561-.732,3.123-1.13,4.82.624,0,1.149-.029,1.67.007a14.27,14.27,0,0,1,1.642.213,18.452,18.452,0,0,1,13.409,9.763.764.764,0,0,0,.792.5c.805-.033,1.614.016,2.418-.026a.932.932,0,0,0,.652-.344c.446-.7.83-1.429,1.218-2.115l-3.877-3.849M59.125,37.133A3.892,3.892,0,0,0,61.808,33.3c.01-2.7-.008-5.394-.023-8.09A4.08,4.08,0,0,0,57.5,20.9c-5.713-.012-11.427,0-17.139-.014a.851.851,0,0,0-.861.5c-.869,1.571-1.809,3.1-2.642,4.694A1.823,1.823,0,0,1,34.929,27.2c-.812-.054-1.629-.011-2.476-.011.219.9.427,1.676.594,2.46a3.613,3.613,0,0,1-3.395,4.7.639.639,0,0,0-.467.341c-.179.9-.3,1.806-.449,2.725h7.825a11.324,11.324,0,1,1,22.563-.282M47.876,27.522a9.055,9.055,0,1,0,9.051,9.052,9.055,9.055,0,0,0-9.051-9.052m-18.54,4.525a1.4,1.4,0,0,0,1.647-1.8A16.581,16.581,0,0,0,5.393,19.542,1.461,1.461,0,0,0,5.279,22.1a14.66,14.66,0,0,1,24.057,9.951M25.958,4.989h.622c3.271,0,6.543.006,9.814-.006a1.359,1.359,0,0,0,1.45-1.346,1.412,1.412,0,0,0-1.406-1.41c-.16-.011-.322,0-.484,0q-10.055,0-20.112,0a3.021,3.021,0,0,0-.95.111,1.3,1.3,0,0,0-.574,2.124,2.129,2.129,0,0,0,1.342.506c3.432.041,6.865.022,10.3.022" transform="translate(0 0)" fill="#fff"/><path d="M8.711,35.418a6.711,6.711,0,1,1,6.68,6.762,6.685,6.685,0,0,1-6.68-6.762m6.678-4.459a4.463,4.463,0,0,0-4.465,4.482,4.5,4.5,0,1,0,4.465-4.482" transform="translate(-0.747 -2.212)" fill="#fff"/><path d="M56.969,39.267a5.086,5.086,0,1,1-5.036-5.136,5.062,5.062,0,0,1,5.036,5.136m-2.213-.044a2.87,2.87,0,1,0-2.841,2.867,2.841,2.841,0,0,0,2.841-2.867" transform="translate(-4.011 -2.625)" fill="#fff"/></g></g></g></svg>