<svg xmlns="http://www.w3.org/2000/svg" xmlns:xlink="http://www.w3.org/1999/xlink" width="90" height="90" viewBox="0 0 90 90"><defs><clipPath id="a"><rect width="53" height="60" fill="#fff"/></clipPath></defs><g transform="translate(-785 -1390)"><circle cx="45" cy="45" r="45" transform="translate(785 1390)" fill="#003262"/><g transform="translate(804 1405)"><g clip-path="url(#a)"><path d="M41.416,0a1.729,1.729,0,0,0,.168.142,1.153,1.153,0,0,1,.6,1.182,1.187,1.187,0,0,1-.885,1c-1.39.478-2.817.87-4.162,1.452a18.175,18.175,0,0,0-7.841,6.539c-.1.143-.18.3-.309.509a12.264,12.264,0,0,1,5.571,3.593,21.828,21.828,0,0,1,3.639,5.625c1.681-.92,3.326-1.822,5.021-2.751-.532-1.132-1.028-2.251-1.58-3.342a1.611,1.611,0,0,1,.136-1.8c1.471-2.191,2.907-4.406,4.36-6.611a3.053,3.053,0,0,1,.387-.513A1.162,1.162,0,0,1,48.4,6.288a3.553,3.553,0,0,1-.322.556c-1.3,1.979-2.589,3.961-3.9,5.929a.781.781,0,0,0-.066.9c.532,1.065,1.026,2.149,1.533,3.226s.348,1.543-.673,2.1c-1.94,1.066-3.882,2.129-5.9,3.232A36.263,36.263,0,0,1,41,33.209c.274-.166.452-.271.627-.38,2.184-1.353,4.37-2.7,6.547-4.063A1.235,1.235,0,0,1,50.2,30.042c-.344,2.809-.661,5.621-.986,8.432-.02.171-.02.345-.035.621.795-.251,1.526-.5,2.267-.712a1.156,1.156,0,0,1,1.542,1.272,1.092,1.092,0,0,1-.789.933c-1.359.45-2.714.914-4.087,1.321a1.145,1.145,0,0,1-1.5-1.323c.19-1.9.431-3.8.65-5.7.109-.948.215-1.9.333-2.941-.232.123-.385.193-.527.281-1.9,1.174-3.806,2.344-5.695,3.54a.992.992,0,0,0-.408.618q-.346,2.521-.614,5.052a1.487,1.487,0,0,0,.207.894c.551.853,1.141,1.684,1.753,2.5a1.8,1.8,0,0,1,.326,1.642c-.564,2.311-1.088,4.633-1.626,6.951-.034.147-.051.3-.086.5,1.345.308,2.659.612,3.974.91,1.78.4,3.562.8,5.342,1.2a1.24,1.24,0,0,1,1.075,1.757c-.1.4-.216.79-.333,1.183a1.21,1.21,0,0,1-1.428.99,1.194,1.194,0,0,1-.854-1.547c.015-.075.022-.152.043-.3-.951-.222-1.9-.449-2.846-.665q-3.187-.723-6.375-1.438c-1.052-.238-1.374-.739-1.131-1.78.553-2.374,1.067-4.759,1.69-7.115A1.882,1.882,0,0,0,39.461,45c-.139.39-.269.761-.4,1.13a21.389,21.389,0,0,1-5.393,8.683,10.558,10.558,0,0,1-6.084,2.959,9.888,9.888,0,0,1-7.63-2.443,19.99,19.99,0,0,1-5.672-8.354c-.257-.648-.482-1.307-.727-1.977a1.892,1.892,0,0,0-.621,2.1c.646,2.37,1.149,4.778,1.7,7.173.232,1.014-.094,1.517-1.1,1.745q-4.422,1-8.843,2c-.131.03-.257.081-.37.117-.015.064-.037.1-.03.135.2.9-.075,1.5-.785,1.694-.688.188-1.26-.234-1.5-1.111-.094-.338-.188-.676-.279-1.016-.276-1.028.043-1.563,1.085-1.8q4.45-1.008,8.9-2.011c.113-.026.223-.066.408-.12-.241-1.049-.478-2.085-.718-3.121-.348-1.5-.685-3.005-1.055-4.5a1.439,1.439,0,0,1,.248-1.267c.649-.906,1.3-1.811,1.921-2.738a1.206,1.206,0,0,0,.192-.743c-.2-1.724-.42-3.445-.658-5.164a.856.856,0,0,0-.317-.551C9.721,34.547,7.7,33.3,5.682,32.056a1.369,1.369,0,0,0-.214-.082,4.212,4.212,0,0,0,0,.452c.307,2.676.624,5.35.925,8.026.13,1.161-.584,1.743-1.7,1.393Q2.846,41.262,1,40.653a1.183,1.183,0,1,1,.72-2.226c.69.213,1.376.435,2.147.68-.172-1.507-.335-2.935-.5-4.362-.182-1.59-.36-3.18-.551-4.769A1.232,1.232,0,0,1,3.366,28.6a1.344,1.344,0,0,1,1.487.168Q8.1,30.8,11.351,32.8c.183.113.369.221.65.389a36.363,36.363,0,0,1,1.95-10.953c-1.557-.857-3.081-1.7-4.607-2.536-.515-.283-1.038-.553-1.548-.845a1.162,1.162,0,0,1-.545-1.684C7.788,16,8.33,14.834,8.9,13.68a.777.777,0,0,0-.056-.9q-2-3-3.959-6.031a1.992,1.992,0,0,1-.339-1.022,1.038,1.038,0,0,1,.858-1,1.119,1.119,0,0,1,1.281.5c.53.775,1.038,1.564,1.554,2.348,1.02,1.553,2.028,3.113,3.064,4.655a1.491,1.491,0,0,1,.111,1.643c-.548,1.1-1.056,2.22-1.614,3.4l5.009,2.748c2.014-4.1,4.531-7.68,9.212-9.22-.148-.238-.277-.47-.429-.685A18.765,18.765,0,0,0,13.418,2.836c-.488-.148-.969-.32-1.462-.452-.57-.154-1.024-.411-1.111-1.053A1.246,1.246,0,0,1,11.683,0h.708c.436.157.864.341,1.309.468a21.124,21.124,0,0,1,10.524,6.65c.832.974,1.546,2.047,2.323,3.088.059-.082.143-.187.213-.3a20.849,20.849,0,0,1,10.393-8.7C38.316.752,39.522.4,40.708,0ZM27.7,25.514v.811q0,10.339,0,20.678c0,.91-.445,1.45-1.174,1.459s-1.174-.528-1.183-1.435c0-.136,0-.273,0-.41q0-10.251.006-20.5c0-.4-.037-.634-.536-.684a14.871,14.871,0,0,1-7.794-3.176c-.131-.1-.273-.19-.418-.291A27.9,27.9,0,0,0,14.6,30.115a33.859,33.859,0,0,0,1.341,14.521,19.66,19.66,0,0,0,4.863,8.317c3.418,3.307,7.631,3.392,11.166.216A16.658,16.658,0,0,0,36.213,46.9a34.2,34.2,0,0,0,.993-22.773c-.209-.734-.5-1.446-.767-2.228a15.507,15.507,0,0,1-8.74,3.613m7.68-5.832A16.071,16.071,0,0,0,31.7,14.923a7.525,7.525,0,0,0-10.333-.034,16.357,16.357,0,0,0-3.452,4.269c-.264.442-.172.664.187.958a12.836,12.836,0,0,0,10.961,2.83,12.385,12.385,0,0,0,6.318-3.264" fill="#fff"/><path d="M26.527,50.829a1.165,1.165,0,0,1,1.161,1.156,1.19,1.19,0,0,1-1.165,1.164,1.161,1.161,0,0,1-1.176-1.2,1.133,1.133,0,0,1,1.18-1.122" fill="#fff"/></g></g></g></svg>