<svg xmlns="http://www.w3.org/2000/svg" xmlns:xlink="http://www.w3.org/1999/xlink" width="90" height="90" viewBox="0 0 90 90"><defs><clipPath id="a"><rect width="47" height="60" fill="#fff"/></clipPath></defs><g transform="translate(-1165 -1200)"><circle cx="45" cy="45" r="45" transform="translate(1165 1200)" fill="#003262"/><g transform="translate(1187 1215)"><g clip-path="url(#a)"><path d="M46.967,23.161c0-2.376,0-10.014.005-11.925a2.074,2.074,0,0,0-1.2-2.042c-.428-.21-.769-.54-.668-.99a1.612,1.612,0,0,1,.669-.927,2.228,2.228,0,0,0,1.2-2.06c-.011-.937,0-1.875,0-2.812A2.109,2.109,0,0,0,44.555,0Q34.019,0,23.484,0,12.889,0,2.3,0A2.064,2.064,0,0,0,.019,2.248C.01,3.087.055,3.929.008,4.766a2.431,2.431,0,0,0,1.385,2.6.947.947,0,0,1,0,1.712A2.5,2.5,0,0,0,0,11.665c.022,9.782.013,25.8.013,35.585,0,.155,0,.309,0,.463-.008,2.7-.019,5.4.029,8.1a4.313,4.313,0,0,0,3.334,4.051c.151.039.3.088.447.132H43.157c2.582-.565,3.863-2.473,3.843-5.354-.075-10.495-.034-20.99-.033-31.485M45.1,56.289a2.662,2.662,0,0,1-2.741,1.952q-18.869,0-37.736,0c-.1,0-.2,0-.3-.005a2.619,2.619,0,0,1-2.379-1.795,4.057,4.057,0,0,1-.154-1.21c-.011-2.691-.006-5.383-.009-8.074,0-.187,0-.374,0-.561,0-9.607,0-25.452,0-35.059,0-.351-.016-.65.388-.88a2.727,2.727,0,0,0,.01-4.882.683.683,0,0,1-.4-.692c.015-.82,0-1.64,0-2.46,0-.865,0-.866.878-.866H38.035c2.158,0,4.316.018,6.474-.012.559-.008.721.188.7.711-.031.819-.027,1.641,0,2.46a.891.891,0,0,1-.511.928,2.722,2.722,0,0,0,.019,4.764.858.858,0,0,1,.492.88c-.016,1.846-.011,9.6-.006,11.749q0,15.916,0,31.832a4.955,4.955,0,0,1-.1,1.219" fill="#fff"/><path d="M40.8,13.833H6.19c-.157,0-.314-.007-.471,0a.881.881,0,0,0-.944.964c-.009,1.541-.01,7.184,0,10.188v.019q0,14.354,0,28.7c0,1.092.24,1.328,1.361,1.328H40.86c1.117,0,1.355-.238,1.355-1.334q0-19.245,0-38.489c0-1.172-.216-1.383-1.414-1.383M6.536,25.347c0-.093,0-.185,0-.286s0-.193,0-.289c0-2.717,0-7.441,0-8.516v-.623H40.406V49.444H6.537v-.717q0-11.69,0-23.38m33.9,27.889H6.575V51.277H40.433Z" fill="#fff"/><path d="M23.5,46.427A13.895,13.895,0,1,0,9.521,32.55,13.943,13.943,0,0,0,23.5,46.427m-4.57-13.033c.688.695,1.386,1.38,2.078,2.07.134.135.262.276.405.428a4.312,4.312,0,0,1-5.2-3.524,23.971,23.971,0,0,1-.139-2.563c-.018-.344.131-.511.481-.494a22.13,22.13,0,0,1,2.633.148,3.858,3.858,0,0,1,3.454,3.531c.087.525.11,1.061.162,1.592l-.139.059-2.013-2.016c-.152-.152-.3-.306-.458-.455-.5-.486-.992-.541-1.388-.157s-.355.9.125,1.381m2.575,11.174a5.839,5.839,0,0,0,1.078-3.9c-.028-.758,0-1.519,0-2.279a.782.782,0,0,1,1.006-.864,6.689,6.689,0,0,1,.77.221c.257,2.271-.517,4.661,1.128,6.823Zm4.048-8.719q1.211-1.189,2.418-2.382a1.921,1.921,0,0,0,.369-.449.791.791,0,0,0-.226-1.05.818.818,0,0,0-1.171.055c-.623.594-1.225,1.211-1.837,1.817-.15.148-.306.291-.469.446a3.647,3.647,0,0,1,3.2-4.839,23.007,23.007,0,0,1,2.579-.135c.293-.013.508.081.482.428a25.456,25.456,0,0,1-.263,3.135,3.478,3.478,0,0,1-2.76,2.809c-.733.179-1.494.249-2.242.369l-.079-.2M11.4,30.917a12.19,12.19,0,0,1,24.237,2.506C35.2,38.429,32.52,41.878,27.9,43.865c-.388.166-.684.156-.885-.216a4.649,4.649,0,0,1-.759-1.614c-.109-1.411-.036-2.835-.036-4.255.631-.106,1.255-.172,1.859-.32a5.559,5.559,0,0,0,4.464-4.981,17.76,17.76,0,0,0,.1-2.918A1.789,1.789,0,0,0,30.758,27.6a18.7,18.7,0,0,0-3.679.227A5.206,5.206,0,0,0,23.518,30.2c-.242-.286-.438-.545-.662-.777a6.578,6.578,0,0,0-4.512-1.853,13.617,13.617,0,0,0-2.4.067A1.632,1.632,0,0,0,14.4,29.1a9.326,9.326,0,0,0,.672,5.439,5.684,5.684,0,0,0,4.635,3.083c.345.054.693.092,1.045.138,0,1.459.005,2.9-.007,4.334a1.577,1.577,0,0,1-.147.5c-.526,1.421-.907,1.581-2.264.948A12.16,12.16,0,0,1,11.4,30.917" fill="#fff"/><path d="M6.851,9.1h33.3c.908,0,1.333-.273,1.349-.862s-.425-.895-1.366-.895H6.834c-.918,0-1.335.266-1.349.853-.014.613.424.9,1.366.9" fill="#fff"/></g></g></g></svg>