<svg xmlns="http://www.w3.org/2000/svg" xmlns:xlink="http://www.w3.org/1999/xlink" width="90" height="90" viewBox="0 0 90 90"><defs><clipPath id="a"><rect width="60" height="60" fill="#fff"/></clipPath></defs><g transform="translate(-785 -1200)"><circle cx="45" cy="45" r="45" transform="translate(785 1200)" fill="#003262"/><g transform="translate(800 1215)"><g clip-path="url(#a)"><path d="M60,31.763c-.15,1.057-.28,2.117-.452,3.17A29.818,29.818,0,0,1,37,59.129c-1.53.36-3.109.512-4.665.761l-.688.11h-3.28c-1.1-.144-2.2-.248-3.288-.442-1.257-.223-2.5-.526-3.781-.8A1.36,1.36,0,0,1,20.4,60h-.586a8.046,8.046,0,0,1-.919-.938c-.485-.684-.913-1.407-1.355-2.121a1.245,1.245,0,0,1,.423-1.981c.785-.51,1.574-1.014,2.372-1.5a1.185,1.185,0,1,1,1.27,1.968,3.356,3.356,0,0,0-.825.692c1.368.354,2.721.785,4.107,1.047a27,27,0,0,0,14.738-1.268,27.286,27.286,0,0,0,12.529-9.457A27.605,27.605,0,0,0,57.37,33.812a25.052,25.052,0,0,0,.093-6.946,4.445,4.445,0,0,1-.039-.642,1.126,1.126,0,0,1,1.005-1.167,1.087,1.087,0,0,1,1.255.887c.118.529.137,1.08.205,1.621.029.229.074.455.111.683Z" fill="#fff"/><path d="M60,15.009c-.073.319-.147.638-.219.958a8.863,8.863,0,0,1-17.422-.221,8.7,8.7,0,0,1,1.522-7C45.9,5.99,48.012,3.3,50.1.6a1.174,1.174,0,0,1,2.049,0q3,3.931,5.985,7.879A8.967,8.967,0,0,1,59.9,12.755a1.22,1.22,0,0,0,.1.262ZM51.081,3.066a2.441,2.441,0,0,1-.169.312C49.289,5.5,47.654,7.612,46.039,9.74a6.7,6.7,0,0,0-1.4,5.324,6.35,6.35,0,0,0,4.652,5.4,6.057,6.057,0,0,0,6.7-2.009,6.361,6.361,0,0,0,1.064-7.1,15.728,15.728,0,0,0-1.871-2.876c-1.315-1.787-2.677-3.539-4.1-5.416" fill="#fff"/><path d="M30.03,48.52A16.3,16.3,0,0,1,14.051,34.742,15.591,15.591,0,0,1,17.14,22.556c3.914-5.113,7.922-10.154,11.9-15.22a1.177,1.177,0,0,1,2.053.017C35.135,12.562,39.224,17.738,43.2,23A16.137,16.137,0,0,1,33.329,48.1c-1.077.24-2.2.288-3.3.425m.037-38.672c-.1.114-.161.168-.209.228-3.632,4.642-7.3,9.255-10.884,13.936a13.23,13.23,0,0,0-2.508,11.011,13.805,13.805,0,1,0,24.566-11.03c-1.567-2.093-3.195-4.141-4.8-6.207-2.045-2.636-4.093-5.27-6.166-7.938" fill="#fff"/><path d="M40.53,1.919c.025-.209.032-.362.064-.51A1.1,1.1,0,0,1,41.476.5,1,1,0,0,1,42.618.9c.63,1.029,1.246,2.07,1.8,3.14a1.015,1.015,0,0,1-.471,1.409c-.944.585-1.91,1.138-2.887,1.667a1.112,1.112,0,0,1-1.492-.385,1.132,1.132,0,0,1,.276-1.561c.258-.2.551-.363.944-.618-.74-.281-1.387-.561-2.054-.775A27.735,27.735,0,0,0,2.766,25.452a24.89,24.89,0,0,0-.321,6.53,4.116,4.116,0,0,1,.012.7,1.144,1.144,0,0,1-1.039,1.084,1.112,1.112,0,0,1-1.236-.921A9.215,9.215,0,0,1,.04,31.335,29.754,29.754,0,0,1,9.357,8.293,29.059,29.059,0,0,1,25.309.4,29.533,29.533,0,0,1,39.848,1.694c.2.069.4.134.682.225" fill="#fff"/><path d="M17.82,49.387A9.07,9.07,0,0,1,8.4,58.69a9.059,9.059,0,0,1-8.318-10.1,9.694,9.694,0,0,1,1.941-4.7q2.908-3.784,5.814-7.57c.73-.949,1.505-.943,2.231.011,2,2.626,4,5.247,5.979,7.885a8.816,8.816,0,0,1,1.777,5.165M8.99,38.758a1.808,1.808,0,0,0-.195.17c-1.652,2.152-3.31,4.3-4.951,6.461a6.776,6.776,0,0,0-1.393,5.278A6.621,6.621,0,0,0,7.495,56.2a6.479,6.479,0,0,0,6.767-2.675,6.691,6.691,0,0,0,.144-7.5C12.671,43.574,10.82,41.2,8.99,38.758" fill="#fff"/><path d="M41.413,34.645a10.552,10.552,0,0,1-1.6,3.752,11.33,11.33,0,0,1-5,4.172,1.188,1.188,0,0,1-1.525-.3,1.132,1.132,0,0,1,.055-1.454,1.9,1.9,0,0,1,.572-.394,9.1,9.1,0,0,0,5.174-6.054,2.253,2.253,0,0,1,.149-.38,1.154,1.154,0,0,1,1.3-.657,1.2,1.2,0,0,1,.88,1.319" fill="#fff"/></g></g></g></svg>